<?xml version="1.0" standalone="no"?>
<!DOCTYPE svg PUBLIC "-//W3C//DTD SVG 20010904//EN"
 "http://www.w3.org/TR/2001/REC-SVG-20010904/DTD/svg10.dtd">
<svg version="1.0" xmlns="http://www.w3.org/2000/svg"
 width="640.000000pt" height="640.000000pt" viewBox="0 0 640.000000 640.000000"
 preserveAspectRatio="xMidYMid meet">
<metadata>
Created by potrace 1.16, written by Peter Selinger 2001-2019
</metadata>
<g transform="translate(0.000000,640.000000) scale(0.100000,-0.100000)"
fill="#000000" stroke="none">
<path d="M410 6203 c0 -109 -4 -202 -8 -208 -4 -5 -16 -15 -27 -21 -11 -6 -21
-21 -23 -33 -2 -11 -8 -21 -13 -21 -5 0 -9 -7 -9 -15 0 -9 -6 -12 -15 -9 -9 4
-15 0 -15 -10 0 -8 -11 -23 -25 -32 -14 -9 -25 -22 -25 -28 0 -7 -11 -23 -25
-36 -13 -12 -23 -28 -22 -33 1 -6 -8 -16 -20 -22 -21 -9 -24 -14 -27 -47 -1
-7 -14 -17 -31 -23 -16 -5 -30 -17 -31 -25 -1 -28 -15 -48 -40 -54 -15 -4 -24
-14 -24 -25 0 -10 -7 -24 -15 -31 -13 -11 -15 -185 -15 -1451 0 -953 3 -1439
10 -1439 6 0 10 -8 10 -17 0 -28 26 -96 41 -107 16 -13 39 -73 39 -102 0 -11
10 -24 22 -29 14 -6 22 -17 20 -28 -2 -9 2 -17 8 -17 5 0 10 -15 10 -33 0 -23
6 -35 21 -42 21 -10 53 -81 58 -127 1 -5 7 -8 15 -8 8 0 20 -17 26 -37 22 -72
32 -93 47 -93 7 0 13 -6 12 -13 -5 -24 25 -99 45 -113 21 -14 21 -17 24 -944
l2 -930 240 0 240 0 2 1847 3 1847 923 -1847 923 -1847 105 0 104 0 -294 588
c-1237 2473 -1536 3076 -1536 3090 0 9 114 157 252 327 138 171 393 486 567
700 173 215 344 426 380 470 36 44 189 233 340 420 151 187 322 399 380 470
59 72 126 156 151 187 25 31 48 56 51 55 4 -1 61 -69 127 -152 145 -179 433
-536 502 -620 84 -102 524 -646 1015 -1254 259 -320 471 -590 473 -601 2 -11
-15 -54 -37 -97 -22 -43 -434 -867 -915 -1830 l-876 -1753 105 0 105 0 923
1846 922 1846 3 -1846 2 -1846 240 0 240 0 0 953 c0 523 3 962 6 974 3 11 13
23 23 26 9 2 23 23 30 45 8 23 25 51 37 63 13 13 24 31 24 41 0 10 16 38 35
64 19 25 35 57 35 71 0 16 7 27 20 30 13 3 20 14 20 29 0 13 4 24 8 24 5 0 14
18 21 40 6 22 17 40 24 40 7 0 19 17 27 37 12 33 15 262 17 1588 4 1644 4
1631 -41 1637 -14 2 -23 13 -26 33 -4 21 -12 31 -26 33 -22 3 -53 64 -55 107
-1 16 -3 15 -9 -5 -5 -14 -8 -18 -9 -9 -1 9 -12 24 -26 33 -14 9 -25 23 -25
31 0 8 -5 15 -11 15 -15 0 -36 23 -40 46 -2 10 -14 23 -26 29 -12 5 -24 18
-27 30 -3 11 -6 104 -6 208 l0 187 -240 0 -240 0 0 -1346 0 -1345 -242 299
c-274 338 -525 648 -932 1152 -153 190 -291 359 -305 376 -14 17 -40 49 -57
70 -17 21 -148 183 -290 359 -143 176 -279 346 -304 377 l-45 57 -175 0 -175
0 -166 -207 c-389 -484 -1933 -2391 -1969 -2432 l-39 -45 0 1343 -1 1342 -240
0 -240 0 0 -197z m5709 -1760 c6 -21 18 -63 26 -93 7 -30 15 -48 16 -40 1 8 7
-14 15 -50 27 -131 14 -445 -21 -525 -7 -16 -16 -59 -20 -95 -10 -92 -24 -152
-40 -170 -8 -8 -15 -38 -18 -65 -2 -28 -4 203 -5 513 -2 540 -1 562 16 562 13
0 23 -12 31 -37z"/>
<path d="M3168 5886 c-16 -12 -18 -35 -18 -235 l0 -221 25 0 c24 0 25 2 25 73
0 70 1 73 29 90 16 9 32 17 35 17 3 0 6 -40 6 -90 l0 -90 30 0 30 0 0 223 0
224 -25 11 c-35 16 -116 15 -137 -2z"/>
<path d="M2958 5783 c-122 -153 -352 -436 -722 -893 -712 -879 -996 -1231
-996 -1236 0 -2 407 -817 904 -1811 l905 -1808 0 1375 -1 1375 -34 -140 c-18
-77 -45 -187 -59 -245 -13 -58 -45 -190 -70 -295 -25 -104 -57 -237 -70 -295
-14 -58 -40 -168 -59 -245 l-33 -140 -547 1094 c-482 962 -546 1095 -534 1111
13 18 154 193 443 550 83 102 216 266 296 365 281 349 331 410 338 413 4 1 16
-35 28 -80 35 -140 139 -538 222 -853 l80 -300 0 1083 c1 595 0 1082 -2 1082
-1 0 -41 -48 -89 -107z"/>
<path d="M3431 2965 l0 -2930 137 270 137 270 5 2068 5 2069 202 -399 c394
-776 428 -842 434 -835 4 4 32 124 64 267 57 259 82 366 87 371 8 7 398 -488
398 -504 0 -10 -6 -38 -14 -63 -8 -24 -44 -134 -79 -244 -36 -110 -110 -339
-165 -510 -55 -170 -144 -444 -197 -608 -53 -165 -95 -300 -93 -302 2 -2 203
396 447 884 l444 887 -150 185 c-215 265 -351 434 -556 687 -99 123 -181 222
-182 220 -2 -2 -24 -97 -50 -213 -26 -115 -50 -218 -54 -227 -4 -11 -39 47
-109 185 -104 205 -661 1303 -694 1367 -16 34 -17 -88 -17 -2895z"/>
<path d="M3173 5118 c-23 -11 -23 -13 -23 -224 0 -244 -4 -234 93 -234 60 0
84 17 83 60 -1 30 -42 42 -52 16 -4 -10 -18 -16 -40 -16 l-34 0 2 173 3 172
31 3 c25 2 33 -1 37 -18 4 -16 12 -21 28 -18 33 5 38 56 7 80 -26 20 -100 23
-135 6z"/>
<path d="M3173 4348 c-23 -11 -23 -13 -23 -235 l0 -223 25 0 c23 0 24 3 27 72
3 69 4 73 36 91 l32 19 0 -91 0 -91 30 0 30 0 0 219 c0 186 -2 220 -16 232
-20 17 -113 22 -141 7z"/>
<path d="M3154 3577 c-2 -7 -3 -114 -2 -237 l3 -225 54 -3 c58 -3 106 11 115
34 3 8 4 104 3 215 l-2 201 -25 14 c-32 17 -139 19 -146 1z m111 -227 l0 -175
-30 0 -30 0 -3 165 c-1 90 0 170 3 178 3 8 16 12 32 10 l28 -3 0 -175z"/>
<path d="M3150 2580 l0 -230 90 0 91 0 -3 43 c-3 35 -7 43 -26 45 -17 3 -25
-2 -29 -17 -4 -16 -13 -21 -39 -21 l-34 0 0 58 c0 58 0 59 40 81 35 19 40 27
40 58 l0 35 -36 -21 c-19 -12 -37 -21 -40 -21 -3 0 -4 37 -2 82 l3 82 33 2
c26 2 32 -1 32 -17 0 -16 6 -20 28 -17 24 3 27 7 27 43 l0 40 -87 3 -88 3 0
-231z"/>
<path d="M3120 1805 l0 -235 25 0 24 0 3 133 3 132 29 -103 c16 -57 32 -100
36 -95 4 4 19 50 34 102 14 52 28 97 31 99 3 3 5 -56 5 -131 l0 -137 25 0 25
0 0 235 0 235 -28 0 c-27 0 -30 -4 -56 -93 -15 -52 -31 -99 -35 -106 -5 -7
-20 34 -37 94 -27 101 -29 105 -56 105 l-28 0 0 -235z"/>
<path d="M3215 1258 c-3 -7 -4 -112 -3 -233 l3 -220 25 0 25 0 0 230 0 230
-23 3 c-12 2 -24 -3 -27 -10z"/>
<path d="M3168 486 c-16 -12 -18 -35 -18 -235 l0 -221 25 0 c24 0 25 2 25 73
0 79 -4 73 63 105 4 2 7 -37 7 -87 l0 -91 30 0 30 0 0 223 0 224 -25 11 c-35
16 -116 15 -137 -2z"/>
</g>
</svg>
